<?xml version="1.0" encoding="utf-8"?>
<!-- Generator: Adobe Illustrator 19.0.0, SVG Export Plug-In . SVG Version: 6.00 Build 0)  -->
<svg version="1.1" id="Layer_1" xmlns="http://www.w3.org/2000/svg" xmlns:xlink="http://www.w3.org/1999/xlink" x="0px" y="0px"
	 viewBox="0 0 1400 980" style="enable-background:new 0 0 1400 980;" xml:space="preserve">
<style type="text/css">
	.st0{fill:#C5DDDD;}
	.st1{clip-path:url(#XMLID_6_);}
	.st2{fill:#DDEEEE;}
	.st3{fill:#EFC592;}
	.st4{fill:#EAAC78;}
	.st5{fill:#D6905C;}
	.st6{fill:#DCE1DB;}
	.st7{fill:#826B54;}
	.st8{fill:#211B19;}
	.st9{fill:#E4A183;}
	.st10{fill:#F5B899;}
	.st11{fill:#FEFEFE;}
	.st12{fill:#F8D878;}
	.st13{fill:#F57E54;}
	.st14{fill:#D85836;}
	.st15{fill:#BFC4C2;}
	.st16{fill:#3A2A29;}
	.st17{fill:#332D2B;}
	.st18{fill:#F0F1F0;}
	.st19{fill:#CCE7E8;}
	.st20{fill:#99D5DB;}
	.st21{fill:#D8987C;}
	.st22{fill:#7CB7BA;}
	.st23{fill:#F76C81;}
	.st24{fill:#FAFCFD;}
	.st25{fill:#F94343;}
	.st26{fill:#D62F30;}
	.st27{fill:#66B756;}
	.st28{fill:#4C993A;}
	.st29{fill:#F7F15F;}
	.st30{fill:#D8BB40;}
	.st31{fill:#338AE2;}
	.st32{fill:#1A77C4;}
</style>
<g id="XMLID_111_">
	<rect id="XMLID_134_" x="1.5" class="st0" width="1400" height="980"/>
	<g id="XMLID_196_">
		<defs>
			<rect id="XMLID_197_" x="1.5" width="1400" height="980"/>
		</defs>
		<clipPath id="XMLID_6_">
			<use xlink:href="#XMLID_197_"  style="overflow:visible;"/>
		</clipPath>
		<g id="XMLID_135_" class="st1">
			<g id="XMLID_136_">
				
					<rect id="XMLID_195_" x="-115.7" y="70.1" transform="matrix(0.9999 1.363986e-002 -1.363986e-002 0.9999 1.0637 -9.7199)" class="st2" width="1657.5" height="6.1"/>
			</g>
			<g id="XMLID_137_">
				
					<rect id="XMLID_194_" x="114.1" y="27" transform="matrix(5.700926e-002 0.9984 -0.9984 5.700926e-002 171.0679 -121.0768)" class="st2" width="71" height="6.1"/>
			</g>
			<g id="XMLID_138_">
				<path id="XMLID_193_" class="st2" d="M1292.1,81.2l-6.1-0.5c0.3-3.3,7-81.9,7.6-86.5l6,0.8C1299-0.5,1292.1,80.4,1292.1,81.2z"
					/>
			</g>
			<g id="XMLID_139_">
				
					<rect id="XMLID_192_" x="488.4" y="129.4" transform="matrix(6.355301e-002 0.998 -0.998 6.355301e-002 647.2523 -424.9426)" class="st2" width="123.4" height="6.1"/>
			</g>
			<g id="XMLID_140_">
				<rect id="XMLID_191_" x="1126.6" y="78.8" class="st2" width="6.1" height="103.9"/>
			</g>
			<g id="XMLID_141_">
				
					<rect id="XMLID_190_" x="725.7" y="-610.5" transform="matrix(1.953297e-002 0.9998 -0.9998 1.953297e-002 905.0051 -541.8293)" class="st2" width="6.1" height="1602"/>
			</g>
			<g id="XMLID_142_">
				<path id="XMLID_189_" class="st2" d="M1529.6,282.3c-27.5,0-1648-12.1-1664.4-12.2l0-6.1c16.4,0.1,1636.8,12.2,1664.3,12.2
					V282.3z"/>
			</g>
			<g id="XMLID_143_">
				
					<rect id="XMLID_188_" x="787.5" y="-537.4" transform="matrix(1.283376e-002 0.9999 -0.9999 1.283376e-002 1128.2325 -446.9949)" class="st2" width="6.1" height="1770.6"/>
			</g>
			<g id="XMLID_144_">
				<path id="XMLID_187_" class="st2" d="M-322.5,437l-0.1-6.1c4.7,0,471-4.4,931.5-8.5c270.5-2.4,486.1-4.2,640.8-5.5
					c91.9-0.7,163-1.2,211.4-1.5c26-0.2,46-0.3,59.4-0.3c6.9,0,12.2,0,15.7,0c6.7,0,6.7,0,7.6,1l-4.3,4.3c0.7,0.7,1.6,0.8,1.8,0.9
					C1523.2,419.8-304.1,436.9-322.5,437z"/>
			</g>
			<g id="XMLID_145_">
				
					<rect id="XMLID_186_" x="-56.5" y="531.8" transform="matrix(1 5.888023e-003 -5.888023e-003 1 3.1637 -4.8756)" class="st2" width="1772.2" height="6.1"/>
			</g>
			<g id="XMLID_146_">
				
					<rect id="XMLID_185_" x="600.5" y="-288.7" transform="matrix(1.116002e-002 0.9999 -0.9999 1.116002e-002 1234.2395 26.849)" class="st2" width="6.1" height="1852.3"/>
			</g>
			<g id="XMLID_147_">
				
					<rect id="XMLID_184_" x="-46" y="716.2" transform="matrix(1 6.249878e-003 -6.249878e-003 1 4.5104 -4.9156)" class="st2" width="1669.6" height="6.1"/>
			</g>
			<g id="XMLID_148_">
				
					<rect id="XMLID_183_" x="564" y="-127" transform="matrix(1.283376e-002 0.9999 -0.9999 1.283376e-002 1386.7128 249.4448)" class="st2" width="6.1" height="1908"/>
			</g>
			<g id="XMLID_149_">
				
					<rect id="XMLID_182_" x="776.2" y="60" transform="matrix(9.486181e-003 1 -1 9.486181e-003 1667.495 108.0721)" class="st2" width="6.1" height="1671.4"/>
			</g>
			<g id="XMLID_150_">
				<rect id="XMLID_181_" x="142.8" y="269.1" class="st2" width="6.1" height="87"/>
			</g>
			<g id="XMLID_151_">
				<rect id="XMLID_180_" x="768.9" y="273.1" class="st2" width="6.1" height="75"/>
			</g>
			<g id="XMLID_152_">
				
					<rect id="XMLID_179_" x="860" y="227.9" transform="matrix(4.628568e-002 0.9989 -0.9989 4.628568e-002 1092.6884 -682.6235)" class="st2" width="87.7" height="6.1"/>
			</g>
			<g id="XMLID_153_">
				
					<rect id="XMLID_178_" x="1338.5" y="277.9" transform="matrix(0.9979 6.416718e-002 -6.416718e-002 0.9979 22.6187 -85.4436)" class="st2" width="6.1" height="63.1"/>
			</g>
			<g id="XMLID_154_">
				
					<rect id="XMLID_177_" x="1388.6" y="418.9" transform="matrix(0.9992 3.878677e-002 -3.878677e-002 0.9992 19.609 -53.6179)" class="st2" width="6.1" height="119.3"/>
			</g>
			<g id="XMLID_155_">
				<rect id="XMLID_176_" x="421.4" y="427.2" class="st2" width="6.1" height="105.3"/>
			</g>
			<g id="XMLID_156_">
				
					<rect id="XMLID_175_" x="239" y="356.1" transform="matrix(0.9985 5.384744e-002 -5.384744e-002 0.9985 21.4852 -12.4628)" class="st2" width="6.1" height="72.8"/>
			</g>
			<g id="XMLID_157_">
				
					<rect id="XMLID_174_" x="1.2" y="476.5" transform="matrix(5.560514e-002 0.9985 -0.9985 5.560514e-002 527.951 400.9529)" class="st2" width="101.6" height="6.1"/>
			</g>
			<g id="XMLID_158_">
				
					<rect id="XMLID_173_" x="36.8" y="676.1" transform="matrix(5.470497e-002 0.9985 -0.9985 5.470497e-002 746.5931 569.6042)" class="st2" width="71.4" height="6.1"/>
			</g>
			<g id="XMLID_159_">
				<path id="XMLID_172_" class="st2" d="M483.5,720.4c-1.2,0-2.6-0.6-3-3.1h0h0c0-0.2-0.1-0.4-0.1-0.7c0-0.6-0.1-1.4-0.2-2.5
					c-0.1-2.1-0.3-5.2-0.5-8.9c-0.4-7.4-1-17.2-1.5-27c-1.1-19.6-2.1-39.2-2.1-39.2l6.1-0.3c1.1,21.1,4.2,76.3,4.3,78.3l-3,0.3l0,0
					l3,0l-3,3.1C483.6,720.4,483.6,720.4,483.5,720.4z"/>
			</g>
			<g id="XMLID_160_">
				
					<rect id="XMLID_171_" x="1080.1" y="631.8" transform="matrix(0.9943 0.1069 -0.1069 0.9943 78.4967 -111.87)" class="st2" width="6.1" height="89.5"/>
			</g>
			<g id="XMLID_161_">
				
					<rect id="XMLID_170_" x="774.8" y="719.2" transform="matrix(0.9997 2.483186e-002 -2.483186e-002 0.9997 19.4047 -19.0785)" class="st2" width="6.1" height="105.2"/>
			</g>
			<g id="XMLID_162_">
				
					<rect id="XMLID_169_" x="1237.3" y="768.1" transform="matrix(6.811888e-002 0.9977 -0.9977 6.811888e-002 1965.9939 -562.535)" class="st2" width="93.6" height="6.1"/>
			</g>
			<g id="XMLID_163_">
				
					<rect id="XMLID_168_" x="1207.2" y="851.9" transform="matrix(0.1106 0.9939 -0.9939 0.1106 1955.8765 -475.8808)" class="st2" width="73.3" height="6.1"/>
			</g>
			<g id="XMLID_164_">
				
					<rect id="XMLID_167_" x="1043.1" y="934.7" transform="matrix(8.712488e-002 0.9962 -0.9962 8.712488e-002 1928.8699 -229.4491)" class="st2" width="93.1" height="6.1"/>
			</g>
			<g id="XMLID_165_">
				
					<rect id="XMLID_166_" x="113.8" y="832.7" transform="matrix(0.999 4.407887e-002 -4.407887e-002 0.999 38.3455 -4.3054)" class="st2" width="6.1" height="69.3"/>
			</g>
		</g>
	</g>
	<path id="XMLID_4_" class="st2" d="M292.5,786.5c0,0-166-82.6-127-198.5s183-170.2,183-170.2s-101-74.4-110-137.1
		c-9-62.7,137.3-202.3,261.7-224.2s176.2,53.3,145.5,76.7c0,0,186.8-9.4,201.8,86.6s-63,167.9-63,167.9s179,6.2,142,120.9
		c0,0,160.8,194.1-145.6,264.7L292.5,786.5z"/>
	<polygon id="XMLID_133_" class="st3" points="1401.5,778 1.5,770 1.5,803 1401.5,799.6 	"/>
	<polygon id="XMLID_200_" class="st4" points="1403,795.7 3,803.2 3,980.2 1403,980.2 	"/>
	<path id="XMLID_198_" class="st5" d="M328.4,916.9c-3.2-7.6,47.3-30.4,153.3-33.4s228,8.1,241.4,20.1S660.5,939,527.1,939
		S332.4,926.3,328.4,916.9z"/>
	<polygon id="XMLID_199_" class="st5" points="78.5,802.6 143.1,824.3 42.5,824.3 61.8,845.9 255.1,840.3 292.5,859 29.1,873.2 
		17.1,898.4 1.5,900 1.5,803 	"/>
	<polygon id="XMLID_201_" class="st5" points="1402.5,980.1 1012.1,980.1 990.1,955.8 1244.1,947.8 1226.1,932.4 1334.1,927.1 
		1333.5,911.1 1140.1,907.1 1151.5,883.1 1288.8,879.1 1273,859.6 1402.5,856.1 	"/>
	<polygon id="XMLID_3_" class="st5" points="901.5,835 724.1,830.6 695.5,848 873.1,856.3 834.8,860.6 853.1,877 1058.8,877 
		1037.8,858.6 929.5,853.8 1078.5,851.3 1093.8,835 	"/>
	<path id="XMLID_2_" class="st2" d="M1151.5,0c0,0,269.2,95.9,47.6,345.7c0,0,182.3,53.2,202.3,285.8V0H1151.5z"/>
	<path id="XMLID_110_" class="st2" d="M292.5,0c0,0-211.1,30.5-291,361V0H292.5z"/>
</g>
<g id="XMLID_106_">
	<polygon id="XMLID_95_" class="st6" points="584.1,337.3 564.5,411.5 551.1,391.2 562.1,350.9 	"/>
	<path id="XMLID_105_" class="st6" d="M638.9,417.5c0,0,8.2,8.1,10.7,18.3c2.4,10.2-19.1,24.5-28.8,25.9s-39.6-11.8-39.6-11.8
		l3.2-23L638.9,417.5z"/>
	<g id="XMLID_73_">
		<polygon id="XMLID_91_" class="st6" points="563.4,460.8 565.8,469.6 575,478 578.7,462.8 		"/>
		<g id="XMLID_101_">
			<path id="XMLID_102_" class="st7" d="M545.9,480.2c13.1,4.6,30.4,4.8,30.4,4.8c0.5-1.5,0.8-3.1,1-4.7c-6.3-0.1-16.4-1-30.1-4.4
				C546.2,478.3,545.9,480.2,545.9,480.2z"/>
			<path id="XMLID_103_" class="st8" d="M576.8,470.7c-5.4,4-10.9-1.1-10.9-1.1c-11.9-4.4-16.7,1.7-18.7,6.3
				c13.7,3.5,23.8,4.4,30.1,4.4C577.7,475.5,576.8,470.7,576.8,470.7z"/>
		</g>
		<path id="XMLID_25_" class="st8" d="M635.9,383.9c0,0,5.1,21.7,4.8,34.4c-0.3,12.7-10.2,22.3-52,16.3c0,0-2.3,18.3-7.6,31.2
			l-19.9-1l-7.9-56.7c0,0,13-17.5,26.5-24.1C593.3,377.3,635.9,383.9,635.9,383.9z"/>
	</g>
	<g id="XMLID_78_">
		<g id="XMLID_77_">
			<g id="XMLID_89_">
				<path id="XMLID_96_" class="st9" d="M619.6,310.3l0.6-2.7l-22.9-2.7l-1.3,17.2c0,0,9.6-3.1,16.3-8.9
					C614.9,311,617.4,310.3,619.6,310.3z"/>
				<path id="XMLID_97_" class="st10" d="M605.2,328.1c6.3,0.1,11.1-3,11.1-3l3.3-14.9c-2.1,0-4.7,0.7-7.3,2.9
					c-6.6,5.7-16.3,8.9-16.3,8.9S598.9,328,605.2,328.1z"/>
			</g>
			<g id="XMLID_76_">
				<path id="XMLID_67_" class="st8" d="M658,272.6c0,0,6.3-15.1,6-32l2.7,4.1c0,0,0.7-13.9-3.1-27.3h4.8l-9.4-3.8l0.6-6.7l-2.8,4
					l-2.8-5.1l-0.6,4.2c0,0-10.3-14-52.8-15.8l4.4,5.3c0,0-15,1.9-35.4,10.5l7.7,3.1c0,0-7.4,7.3-13.3,19.5l7.4-1.9
					c0,0-1.6,11.3,0.9,24.8L658,272.6z"/>
				<path id="XMLID_53_" class="st10" d="M569.8,270.7c0,0-15.9,25.7,5.8,36.8c21.7,11.1,66.9,17.1,75.3-13.7c0,0,25.8-3.9,7-21.2
					c0,0,8.4-45.7-27.9-55.2c-36.3-9.5-56.6,13.1-57.8,38.1C572.3,255.4,555.3,258.5,569.8,270.7z"/>
				<path id="XMLID_68_" class="st8" d="M658,272.6c0,0-6.4,3-10.3,9.7l-4.4-4.9c0,0,6.8-17.7,3.7-35.5c0,0-20.5-1-35.4-5.3l5.5-2.1
					c0,0-15.6-0.9-29.3-3.6l6-2.3c0,0-6.3-0.2-10.6-0.7c0,0-7.3,21.2-10.9,27.5c0,0-1.6-37.9,32.3-46.2
					C638.4,200.9,669.5,221,658,272.6z"/>
			</g>
		</g>
		<g id="XMLID_75_">
			<g id="XMLID_74_">
				<path id="XMLID_52_" class="st8" d="M607.9,267.7c0,0-0.1-0.9,0-2.4c0.1-1.5,0.2-3.7,0.9-6.3c0.8-2.5,1.9-5.8,5-8.2
					c1.6-1.1,3.5-1.9,5.5-2c2-0.2,3.8,0,5.8,0.7c1.3,0.3,4,1.8,5,3.5c1.3,1.7,1.8,3.9,1.8,5.7c0.1,1.9-0.3,3.5-0.7,5
					c-0.4,1.5-0.9,2.8-1.5,4c-2.2,4.7-4.4,7.4-4.4,7.4l-2.3-1.5c0,0,1.7-2.8,3.3-7.3c0.8-2.2,1.6-4.9,1.5-7.5c0-1.3-0.4-2.4-1.1-3.3
					c-0.4-0.4-0.7-0.9-1.2-1.1c-0.3-0.3-1-0.6-1.9-0.8c-1.2-0.4-2.8-0.7-4-0.5c-1.3,0-2.4,0.5-3.4,1.1c-1.9,1.4-3.3,3.8-4,5.9
					c-1.6,4.4-1.7,7.7-1.7,7.7L607.9,267.7z"/>
				<path id="XMLID_70_" class="st8" d="M591.1,263.5c0,0,0.9-2.5,1.5-6.4c0.3-1.9,0.4-4.2-0.2-6c-0.3-0.9-0.8-1.5-1.5-1.9
					c-0.3-0.2-0.7-0.4-1.3-0.4l-0.4-0.1c0.1,0-0.4-0.1,0.1,0l-0.3,0l-1,0c-0.8,0-0.6,0.2-1.1,0.2c-0.3,0.3-0.8,0.4-1,0.8
					c-0.7,0.6-1.2,1.6-1.7,2.6c-0.9,2-1.4,4.3-1.7,6.2c-0.7,3.9-0.7,6.5-0.7,6.5l-2.7,0.1c0,0-0.4-2.8-0.2-7.1
					c0.2-2.1,0.5-4.7,1.5-7.4c0.6-1.3,1.3-2.8,2.6-4c0.5-0.7,1.4-1.1,2.2-1.6c0.9-0.3,2.3-0.7,2.9-0.7l1,0l0.3,0
					c0.7,0,0.4,0.1,0.6,0.1l0.6,0.2c0.9,0.2,1.7,0.5,2.5,1c1.6,1,2.8,2.7,3.1,4.3c0.9,3.2,0.1,5.8-0.4,7.9c-1.2,4.2-2.7,6.6-2.7,6.6
					L591.1,263.5z"/>
			</g>
			<g id="XMLID_72_">
				<path id="XMLID_71_" class="st11" d="M578.8,276.3l41.1,7.2c0,0-0.3,19.1-22.1,15.5C576,295.5,576.3,283.8,578.8,276.3z"/>
				<polygon id="XMLID_69_" class="st6" points="593.8,287.3 607.6,289.8 610.4,285.7 609.8,290.2 614.4,292.5 604.1,291.2 
					602.3,293.8 602.3,290.8 				"/>
			</g>
		</g>
	</g>
	<g id="XMLID_81_">
		<path id="XMLID_80_" class="st10" d="M649.3,316.5c0,0,19.6-7.2,25.3-11.6c5.6-4.4,14.4-20.2,14.4-20.2s-2.7-14.2,1.3-18.9
			s4.8,7.8,4.8,7.8s9.7-15,13.1-13.9c3.5,1-0.5,9.2-0.5,9.2s6-7,8.3-5.4c2.3,1.6-3.6,10.2-3.6,10.2s7.8-6,10.2-3.7
			c2.4,2.3-6.1,9.3-6.1,9.3s7.3-2.8,8.6,0c1.4,2.7-12.5,13.9-20.5,17.1c0,0-11.1,19.4-20.1,28.7s-23.9,11.8-23.9,11.8L649.3,316.5z"
			/>
		<g id="XMLID_85_">
			<path id="XMLID_90_" class="st9" d="M509.8,290.5c-3.7,1.7-6.3,3-6.6,3.3c-1,1.1-1.9,22.2,18.1,19.1c2.7-0.4,5.3-1.1,7.6-1.9
				c-5.2-7.7-9.3-14.8-9.3-14.8C516.8,295.1,513.2,292.9,509.8,290.5z"/>
			<path id="XMLID_92_" class="st10" d="M533.9,265.8c-4-4.7-4.8,7.8-4.8,7.8s-9.7-15-13.1-13.9c-3.5,1,0.5,9.2,0.5,9.2
				s-6-7-8.3-5.4c-2.3,1.6,3.6,10.2,3.6,10.2s-7.8-6-10.2-3.7c-2.4,2.3,6.1,9.3,6.1,9.3s-7.3-2.8-8.6,0c-0.9,1.7,4.5,7,10.6,11.3
				c7.9-3.7,20.7-9.4,26.1-11.4C536.3,274.6,536.2,268.6,533.9,265.8z"/>
			<path id="XMLID_93_" class="st10" d="M549.6,304.8c-1-0.8-2.1-2-3.3-3.4c-4,3.3-9.8,7.1-17.3,9.6c3.4,5,7.3,10.2,10.8,13.9
				c9,9.2,23.9,11.8,23.9,11.8l13.9-20.3C577.7,316.5,555.2,309.3,549.6,304.8z"/>
			<path id="XMLID_94_" class="st9" d="M535.2,284.7c0,0,0.4-2.4,0.7-5.6c-5.5,2-18.2,7.7-26.1,11.4c3.4,2.4,7,4.6,9.9,5.8
				c0,0,4.1,7.1,9.3,14.8c7.5-2.4,13.3-6.3,17.3-9.6C541.1,295.2,535.2,284.7,535.2,284.7z"/>
		</g>
		<g id="XMLID_82_">
			<path id="XMLID_84_" class="st12" d="M572.2,380.6c-0.8,3.8-1.4,6.3-1.4,6.3c35.9,11.3,69,5.9,69,5.9c0-1.7,0-3.3-0.1-5
				C602.3,392.9,581.2,385.4,572.2,380.6z"/>
			<g id="XMLID_79_">
				<g id="XMLID_100_">
					<path id="XMLID_107_" class="st13" d="M638.8,370.5c-0.4-4.2-0.8-7.7-1.1-10.5c-1.2-0.1-2-0.3-2-0.3s-6-3.2-6.3-6.3
						c-0.3-3.1-2.2-18.3-2.2-18.3s12.8-6.4,19.7-2.4c0,0,6.4-0.3,7.4,9.5c0.6-0.5,1.3-1,1.8-1.5l-13.6-23.3
						c-15.9,2.8-26.2,7.6-26.2,7.6s-4.8,3.1-11.1,3s-9.2-6-9.2-6c-5.8-3.1-13.3-4.1-13.3-4.1l-16.8,21.1c6.1,5,13.9,10.1,13.9,10.1
						c-2.8,10.1-5.8,23.6-7.5,31.4c4.4,2.3,11.6,5.2,22.2,7.1c3.2-6.5,6.4-12.8,6.4-12.8S623,372.3,638.8,370.5z"/>
					<path id="XMLID_108_" class="st14" d="M646.8,332.8c-6.9-4-19.7,2.4-19.7,2.4s1.9,15.2,2.2,18.3c0.3,3.1,6.3,6.3,6.3,6.3
						s0.8,0.2,2,0.3c-0.6-4.5-1.1-7.1-1.1-7.1c7.3-2.9,13.4-7.3,17.7-10.7C653.2,332.5,646.8,332.8,646.8,332.8z"/>
					<path id="XMLID_109_" class="st14" d="M639.8,387.8c-0.1-6.6-0.5-12.4-0.9-17.3c-15.9,1.8-38,4.4-38,4.4s-3.2,6.4-6.4,12.8
						C605.6,389.7,620.5,390.4,639.8,387.8z"/>
				</g>
				<path id="XMLID_86_" class="st12" d="M582.7,318c-2.5-2-5.1-3.5-5.1-3.5l-17.4,19.3c1.3,1.6,3.4,3.5,5.6,5.3L582.7,318
					L582.7,318z"/>
				<path id="XMLID_87_" class="st12" d="M660.4,336.7l-11.1-20.3c-2.4,0.3-4.7,0.6-6.8,1l13.6,23.3
					C658.8,338.4,660.4,336.7,660.4,336.7z"/>
			</g>
		</g>
	</g>
	<g id="XMLID_44_">
		<g id="XMLID_58_">
			<polygon id="XMLID_63_" class="st6" points="408.5,869.5 423.1,882.1 433.6,869.5 435.3,862.1 408.9,862.1 			"/>
			<polygon id="XMLID_64_" class="st15" points="410,843.6 408.9,862.1 435.3,862.1 443.4,826.4 			"/>
			<polygon id="XMLID_65_" class="st6" points="514.7,862.1 514,876.7 538.2,875.7 541.2,862.1 			"/>
			<polygon id="XMLID_66_" class="st15" points="547.6,832.5 515.5,842.8 514.7,862.1 541.2,862.1 			"/>
		</g>
		<path id="XMLID_54_" class="st16" d="M408.5,869.5c0,0-9.2,10.5-12,22.3s1,25,1,25l29.8,4.1l0.4-4.5c0,0,14.3,5.3,34.5,8.4
			s38.5-0.7,38.5-0.7s-1.7-11.3-5.6-17.1c0,0-47.8-4.6-61.5-37.6C433.6,869.5,423,880.2,408.5,869.5z"/>
		<path id="XMLID_56_" class="st16" d="M514.3,869.5c0,0-8.5,8.5-10,19.9c-1.5,11.5,1.5,25.2,1.5,25.2l29.6,3.4l1.4-4.6
			c0,0,16.1,7.9,38.3,9.2c22.3,1.4,36.5-4.5,36.5-4.5s-0.3-8.4-3.8-15.6c0,0-26.4-1.5-41.1-9.4s-27-24.8-27-24.8
			S530.5,878.2,514.3,869.5z"/>
		<g id="XMLID_46_">
			<path id="XMLID_55_" class="st8" d="M491.9,570.7L441.3,614c0,0,0.7,34.6-5.5,85c14.9,3.5,31.4,6.2,49,7.5
				C490.7,663.2,494.5,615.4,491.9,570.7z"/>
			<g id="XMLID_42_">
				<path id="XMLID_59_" class="st17" d="M435.8,699c-5.4,43.4-15.9,98.4-36.6,153.3h32.7c23.3-67.7,30-119.3,31.9-148.1
					C454,702.8,444.6,701.1,435.8,699z"/>
				<path id="XMLID_60_" class="st8" d="M484.8,706.6c-7.2-0.5-14.2-1.3-21-2.3c-1.8,28.7-8.6,80.4-31.9,148.1h22.8
					C454.7,852.3,473.6,787.3,484.8,706.6z"/>
				<path id="XMLID_61_" class="st17" d="M521.4,706.8c-1.5,35.5-6,84-17.1,145.5h33.8c12.9-59.1,16.6-116.7,17.7-149.9
					C544.2,704.7,532.6,706.2,521.4,706.8z"/>
				<path id="XMLID_62_" class="st8" d="M570.6,699.1c-4.9,1.3-9.8,2.3-14.7,3.3c-1.1,33.2-4.9,90.7-17.7,149.9h18.1
					C556.2,852.3,567.1,780.1,570.6,699.1z"/>
			</g>
			<path id="XMLID_57_" class="st8" d="M568.7,586.5l-48.6,48.6c0,0,3.3,24.2,1.3,71.8c15.9-0.9,32.4-3.4,49.1-7.7
				C572.2,661.3,572.2,621.6,568.7,586.5z"/>
		</g>
		<g id="XMLID_36_">
			<path id="XMLID_43_" class="st18" d="M603.9,381.4c0,0-12.3,12-30.3,23.9c-0.8,6.7-1.4,13.6-1.8,20.6
				C592.2,404.4,603.9,381.4,603.9,381.4z"/>
			<path id="XMLID_45_" class="st18" d="M511,428.6c22,0,45-11.6,62.7-23.3c0.4-3.2,0.8-6.3,1.2-9.4h-64.4l-69.5-42
				C458.1,387.4,484.6,428.6,511,428.6z"/>
			<g id="XMLID_23_">
				<path id="XMLID_50_" class="st18" d="M498.7,462.3c-1.7,0-3.4-0.1-5.2-0.3c-36.1-3.7-61.6-28.3-77.4-49.9
					c-3.6,53-7.6,132.4-7.6,225c0,0,43.4,24.3,100.4,22.2C498.6,587.3,498.4,493.3,498.7,462.3z"/>
				<path id="XMLID_51_" class="st6" d="M571.9,425.9c-18.2,19.3-43.3,37.3-73.1,36.4c-0.3,31-0.1,125,10.2,197
					c25-0.9,52.6-6.9,80.3-22.2C589.2,637.1,565.7,522.6,571.9,425.9z"/>
			</g>
			<path id="XMLID_47_" class="st6" d="M493.5,462c32.1,3.2,59.1-15.8,78.3-36.1c0.4-7,1-13.8,1.8-20.6C556,417,533,428.6,511,428.6
				c-26.4,0-52.9-41.3-70.1-74.8l-19.1-11.5c0,0-2.8,25.8-5.8,69.8C431.9,433.7,457.4,458.4,493.5,462z"/>
		</g>
		<g id="XMLID_1_">
			<path id="XMLID_21_" class="st10" d="M602.6,363.8c0,0-0.5-20.7,10.5-26.4c11-5.6,20.6-4.2,23.5,0.9c0,0,9-1.6,7.6,6.7
				c0,0,8.8,3.8,0.9,11.8c0,0,9.2,4.3,0.6,12c0,0,4.5,2.7-1.5,6.4c-6,3.6-28.1,6.4-28.1,6.4L602.6,363.8z"/>
			<path id="XMLID_16_" class="st19" d="M470.2,312l-5.9,2.1L505.9,433l33.4-115.8l-7.6-5.5C531.7,311.7,513.9,318.7,470.2,312z"/>
			<polygon id="XMLID_19_" class="st20" points="588.7,373.1 602,361.3 619.2,383.9 607.9,395.9 			"/>
			<g id="XMLID_28_">
				<path id="XMLID_29_" class="st8" d="M503.2,340.2l-11.3,40.1c0,0,3.5,41.5,6.7,41.2c3.2-0.3,29.9-5.8,29.9-5.8l-19.7-78.1
					L503.2,340.2z"/>
				<polygon id="XMLID_27_" class="st8" points="494.2,334 505.4,347.1 518.6,333.2 505.9,314.9 				"/>
			</g>
			<g id="XMLID_33_">
				<path id="XMLID_48_" class="st6" d="M554.9,319.5l-40.1,82.8l-8.8,30.6h44.6l33.6-95.6C575,327,563.8,322,554.9,319.5z"/>
				<path id="XMLID_49_" class="st18" d="M539.3,317.1l-24.6,85.2l40.1-82.8C545.9,317,539.3,317.1,539.3,317.1z"/>
			</g>
			<g id="XMLID_12_">
				<g id="XMLID_31_">
					<path id="XMLID_38_" class="st21" d="M513.2,301.5l3.1,2.2c2.1-4.2,2.4-8.4,2.4-8.5L513.2,301.5z"/>
					<path id="XMLID_39_" class="st20" d="M526.3,303.7l-5.4,3.2l-4.6-3.2c-1.9,3.8-5,7.7-10.7,8.8c-5.7,1.1-9.5-2.4-12.1-6.5
						l-7,1.1l-5.4-4.3l-10.8,9.1c0,0,5.5,20.7,24.3,27l11.6-20.2l11.3,20.2c0,0,10.6-3.6,16-27.4L526.3,303.7z"/>
					<polygon id="XMLID_40_" class="st20" points="518.8,295.2 518.8,295.3 518.8,295.2 					"/>
					<path id="XMLID_41_" class="st22" d="M526.3,303.7l-7.5-8.5l0,0c0,0.1-0.4,4.2-2.4,8.5l4.6,3.2L526.3,303.7z"/>
				</g>
				<path id="XMLID_37_" class="st22" d="M493.5,306c-2.9-4.7-4.1-10.1-4.1-10.1l-8.3,7l5.4,4.3L493.5,306z"/>
			</g>
			<g id="XMLID_83_">
				<path id="XMLID_98_" class="st9" d="M520.9,306.9l2.5-15.9h-36.9v1.7l11.5,1.8C498,294.4,509.1,305.7,520.9,306.9z"/>
				<path id="XMLID_99_" class="st10" d="M506.4,315.6c7.6-0.5,14.5-8.7,14.5-8.7c-11.8-1.2-22.9-12.5-22.9-12.5l-11.5-1.8v14.5
					C486.5,307.2,498.8,316.2,506.4,315.6z"/>
			</g>
			<g id="XMLID_22_">
				<path id="XMLID_14_" class="st8" d="M435,239.9c0,0-10.5-50.8-18.2-71.1c0,0,9-6.9,24.7-7.4c0,0,19.8-41.9,114.8-30.3
					c0,0-9,15.5-13.4,34.6c0,0,5.6,3.2,11.6,8.1c0,0-1.2,28.7-4.7,47.8C549.7,221.5,504.1,215.5,435,239.9z"/>
				<path id="XMLID_11_" class="st10" d="M440.7,256.6c0,0-6.3,47.1,62,44.5c68.3-2.6,55.3-42.6,47.8-55.1c0,0,22.9-13.5-0.7-24.5
					c0,0-6.8-58.5-63.7-55.8s-48.4,63.6-48.4,63.6S410.6,245.3,440.7,256.6z"/>
				<path id="XMLID_13_" class="st8" d="M433.4,232.3c0,0,6.1,3.6,8.2,11.3l6.7-2.7c0,0-3.5-29,9.1-54.2c0,0,54.1,4.9,80.3-13.6
					l-27.9-24.4L432,176.2L433.4,232.3z"/>
				<g id="XMLID_15_">
					<path id="XMLID_18_" class="st8" d="M532.4,254.8l-55.5,3.7c-1.2,4.5-0.8,8.5,0.7,11.9c6.5-1.1,34.6-4.8,42.2,12.6
						c0.4-0.1,0.8-0.2,1.3-0.3C541.3,276.3,532.4,254.8,532.4,254.8z"/>
					<path id="XMLID_20_" class="st23" d="M477.5,270.3c5.4,12.4,26.2,17,42.2,12.6C512.1,265.5,484,269.2,477.5,270.3z"/>
				</g>
				<g id="XMLID_17_">
					<path id="XMLID_24_" class="st8" d="M486.9,222.1c-0.8-1.9-2.1-3.9-3.9-5.6c-1.1-0.8-1.9-1.7-3.6-2.1c-1.8-0.6-2.7-0.5-3.7-0.5
						c-3.3,0.4-5.5,1.7-7.2,3.7c-1.7,1.8-2.7,3.9-3.5,5.9c-1.5,4-1.8,7.8-2.1,10.9c-0.3,6,0.3,10,0.3,10.4c0.9-0.2,1.9-0.5,3-0.7
						c0.1-1.4,0.3-4.8,1-9.2c0.4-2.9,1.2-6.3,2.5-9.5c0.7-1.6,1.5-3.1,2.6-4.2c0.9-1.2,2.7-1.6,3.4-1.9c1.1-0.1,2.2,0,2.3,0.2
						c0.3-0.1,1,0.6,1.6,0.9c1.1,1.1,2.1,2.4,2.9,4c1.6,3.1,2.7,6.4,3.4,9.3c0.7,2.6,1.2,4.8,1.5,6.5c1.1-0.2,2.3-0.3,3.5-0.4
						c-0.1-1.8-0.3-4.1-0.8-7C489.4,229.6,488.7,225.9,486.9,222.1z"/>
					<path id="XMLID_26_" class="st8" d="M536.7,230.9c-0.4-3-0.8-6.6-2.3-10.3c-0.8-1.8-1.8-3.8-3.5-5.5c-1.7-1.8-3.8-3-7-3.2
						c-0.9,0.1-1.8,0-3.5,0.6c-1.6,0.5-2.3,1.4-3.4,2.2c-1.6,1.7-2.8,3.6-3.5,5.5c-1.6,3.7-2.1,7.2-2.6,10.2c-0.4,3.5-0.5,6.3-0.5,8
						c1,0,2.1,0,3.2,0c0.2-1.7,0.7-4.1,1.4-7.3c0.6-2.8,1.5-5.9,2.9-8.9c0.6-1.5,1.6-2.8,2.6-3.9c0.5-0.3,1.2-1,1.5-0.9
						c0.1-0.2,1.2-0.3,2.2-0.3c0.7,0.2,2.4,0.5,3.3,1.7c1.1,1,1.9,2.4,2.6,3.9c1.3,3,2.2,6.2,2.7,9c0.7,3.8,1.1,6.6,1.2,8.2
						c1,0.1,2,0.3,3,0.5C537,238.7,537.1,235.4,536.7,230.9z"/>
				</g>
			</g>
			<polygon id="XMLID_30_" class="st18" points="470.2,312 500.8,398.8 458.4,320.5 464.3,314.1 			"/>
			<g id="XMLID_32_">
				<path id="XMLID_34_" class="st24" d="M589.4,366.7c0,0-30,32.9-64.7,47.5c0,0-15-0.1-27.4-3.7l16.3-5.8
					c-11.5-12.1-30.3-38-49.3-90.7c0,0-33,1-41.2,20.5c-8.2,19.5,22.9,73.3,51.7,94.5c28.8,21.2,54.8,33.9,90.4,9.2
					c35.6-24.7,50.2-45.4,50.2-45.4L589.4,366.7z"/>
				<path id="XMLID_35_" class="st18" d="M524.7,414.2c0,0-4.2-2.2-11.1-9.4l-16.3,5.8C509.6,414.1,524.7,414.2,524.7,414.2z"/>
			</g>
		</g>
	</g>
	<path id="XMLID_104_" class="st20" d="M609.3,434.9l-4.1,1.4c0,0,5.5,9.3,14.9,10.4c9.4,1.2,20.9-4.9,24.7-9
		c3.7-4.1-4.4-17.7-4.4-17.7L609.3,434.9z"/>
	<path id="XMLID_88_" class="st10" d="M641.4,433.7c6.4-6.5-0.6-30.6-6.1-34c-6.1-3.8-3,12.4-3,12.4s-11.6-12.8-17.2-11.5
		c-5.6,1.3,1.9,9.4,1.9,9.4s-9.6-6.2-11.6-4.2c-2,2,2.2,8.9,5.5,12.1c0,0-7.7-5-9.9-2.8c-2.2,2.1,7.5,11.5,7.5,11.5s-5.6-2-7.2,1.4
		c-1.6,3.4,14.2,14,19.2,15C625.4,444,634.6,440.6,641.4,433.7z"/>
</g>
<g id="XMLID_116_">
	<polygon id="XMLID_112_" class="st25" points="1141.5,860 1136,840.2 1169.8,839 1164.8,860 	"/>
	<path id="XMLID_113_" class="st25" d="M1136,840.2c0,0,21-10.3,21.5-10.5c0.5-0.2,31.3-1.2,31.3-1.2l-19,10.5L1136,840.2z"/>
	<polygon id="XMLID_114_" class="st26" points="1164.8,860 1178,856 1188.8,828.5 1169.8,839 	"/>
	<g id="XMLID_117_">
		<polygon id="XMLID_119_" class="st26" points="1163.9,845.1 1164.2,843 1142.2,844.3 1144.4,856 1147.1,856 1145.3,846.2 		"/>
		<polygon id="XMLID_203_" class="st25" points="1163.9,845.1 1145.3,846.2 1147.1,856 1162.4,856 		"/>
	</g>
</g>
<g id="XMLID_207_">
	<polygon id="XMLID_214_" class="st27" points="1296.6,938.7 1291.1,918.9 1325,917.7 1320,938.7 	"/>
	<path id="XMLID_213_" class="st27" d="M1291.1,918.9c0,0,21-10.3,21.5-10.5s31.3-1.2,31.3-1.2l-19,10.5L1291.1,918.9z"/>
	<polygon id="XMLID_212_" class="st28" points="1320,938.7 1333.1,934.7 1344,907.2 1325,917.7 	"/>
	<g id="XMLID_209_">
		<polygon id="XMLID_211_" class="st28" points="1319,923.8 1319.3,921.7 1297.3,922.9 1299.6,934.7 1302.3,934.7 1300.4,924.9 		
			"/>
		<polygon id="XMLID_210_" class="st27" points="1319,923.8 1300.4,924.9 1302.3,934.7 1317.6,934.7 		"/>
	</g>
</g>
<g id="XMLID_202_">
	<polygon id="XMLID_115_" class="st29" points="1087.5,874.6 1079.8,855.1 1099.2,845.1 1121.9,847.8 1106.9,857.8 1110.9,876.1 	
		"/>
	<polygon id="XMLID_118_" class="st30" points="1110.9,876.1 1121.9,871.3 1121.9,847.8 1103.5,857.8 	"/>
	<g id="XMLID_204_">
		<polygon id="XMLID_206_" class="st30" points="1100.7,862.4 1099.4,859.5 1084.8,857.9 1090,872.3 1092.3,872.4 1088.2,861 		"/>
		<polygon id="XMLID_208_" class="st29" points="1100.7,862.4 1088.2,861 1092.3,872.4 1105.6,873 		"/>
	</g>
</g>
<g id="XMLID_215_">
	<polygon id="XMLID_220_" class="st31" points="120.4,927 128.1,907.5 108.7,897.5 86.1,900.2 101,910.2 97.1,928.5 	"/>
	<polygon id="XMLID_219_" class="st32" points="97.1,928.5 86.1,923.7 86.1,900.2 104.4,910.2 	"/>
	<g id="XMLID_216_">
		<polygon id="XMLID_218_" class="st32" points="107.2,914.8 108.5,911.9 123.1,910.4 117.9,924.7 115.6,924.8 119.8,913.5 		"/>
		<polygon id="XMLID_217_" class="st31" points="107.2,914.8 119.8,913.5 115.6,924.8 102.3,925.4 		"/>
	</g>
</g>
</svg>
