<svg xmlns="http://www.w3.org/2000/svg" xmlns:xlink="http://www.w3.org/1999/xlink" viewBox="0 0 160.56 30.17"><defs><style>.cls-1{fill:url(#Degradado_sin_nombre_16);}.cls-2{fill:url(#Degradado_sin_nombre_9);}.cls-3{fill:#57b952;}.cls-4{font-size:12.4px;font-family:TimesNewRomanPSMT, Times New Roman;letter-spacing:-0.02em;}.cls-4,.cls-5{fill:#ef8437;}.cls-6{fill:#3c4a99;}</style><linearGradient id="Degradado_sin_nombre_16" y1="19.68" x2="25.05" y2="19.68" gradientUnits="userSpaceOnUse"><stop offset="0" stop-color="#364c9c"/><stop offset="1" stop-color="#1b7cb6"/></linearGradient><linearGradient id="Degradado_sin_nombre_9" x1="5.91" y1="10.1" x2="30.17" y2="10.1" gradientUnits="userSpaceOnUse"><stop offset="0" stop-color="#fddc19"/><stop offset="1" stop-color="#f58d32"/></linearGradient></defs><title>Recurso 7</title><g id="Capa_2" data-name="Capa 2"><g id="Capa_1-2" data-name="Capa 1"><path class="cls-1" d="M22.46,18.9l-5.19,5.19a3.1,3.1,0,0,1-4.37,0L6.08,17.27a3.08,3.08,0,0,1,0-4.37L7.2,11.77,4.62,9.18.9,12.9a3.1,3.1,0,0,0,0,4.37l12,12a3.1,3.1,0,0,0,4.37,0l7.78-7.78Z"/><path class="cls-2" d="M29.27,12.9l-12-12A3.1,3.1,0,0,0,12.9.9l-7,7L8.5,10.48l4.4-4.4a3.08,3.08,0,0,1,4.37,0l6.82,6.82a3.1,3.1,0,0,1,0,4.37l-.34.34,2.59,2.59,2.93-2.93A3.1,3.1,0,0,0,29.27,12.9Z"/><rect class="cls-3" x="9.78" y="9.87" width="10.69" height="10.69" rx="3.57" transform="translate(-6.33 15.15) rotate(-45)"/><text class="cls-4" transform="translate(11.25 15.4)">T</text><path class="cls-5" d="M10.05,7.84a6.82,6.82,0,0,1-.46,2.57A7.16,7.16,0,0,1,8.76,12h0c-.27.62-.53,1.25-.79,1.88a7.19,7.19,0,0,0-.2,1.27c-.13,2,1.55,4.34,1.74,4.59l-.24-4.22c.14-1,.32-2,.56-3s.55-2.26.86-3.27a8.9,8.9,0,0,1,4.47,2.84,6.2,6.2,0,0,1,4-2.53c.14.72.32,1.48.54,2.27s.49,1.69.76,2.45A6,6,0,0,1,21.11,16a6.28,6.28,0,0,1-.48,3.81,6.46,6.46,0,0,0,1.67-4.45,5.9,5.9,0,0,0-.41-1.85,8.35,8.35,0,0,1-1.16-2.26,10.31,10.31,0,0,1-.51-3.59v0A15.78,15.78,0,0,1,18,8.91a16.89,16.89,0,0,1-2.72,1,17.55,17.55,0,0,1-2.58-.77A17.74,17.74,0,0,1,10.05,7.84Z"/><path class="cls-6" d="M46.92,22.12l-6.39-12V20.79a.85.85,0,0,0,.18.59,1.24,1.24,0,0,0,.63.33v.41H36.25v-.41a1.23,1.23,0,0,0,.64-.33.85.85,0,0,0,.18-.59V6.12a.84.84,0,0,0-.18-.58,1.23,1.23,0,0,0-.64-.33V4.8h6.68v.41a.68.68,0,0,0-.6.69,1.27,1.27,0,0,0,.18.59l4.73,9L52,6.64a2.16,2.16,0,0,0,.32-.85c0-.35-.21-.54-.63-.58V4.8h6.54v.41a1.24,1.24,0,0,0-.63.33.84.84,0,0,0-.18.58V20.79a.85.85,0,0,0,.18.59,1.24,1.24,0,0,0,.63.33v.41h-5.4v-.41a1.16,1.16,0,0,0,.63-.32.9.9,0,0,0,.18-.6V10.15Z"/><path class="cls-6" d="M101.23,7.66V20.79a.85.85,0,0,0,.18.59,1.24,1.24,0,0,0,.63.33v.41h-5.4v-.41a1.24,1.24,0,0,0,.63-.33.85.85,0,0,0,.18-.59V7.66H92.07a.84.84,0,0,0-.58.17,1.23,1.23,0,0,0-.33.64h-.41V4h.41a1.4,1.4,0,0,0,.33.64.89.89,0,0,0,.58.17H106.6a.9.9,0,0,0,.59-.17,1.23,1.23,0,0,0,.33-.64h.41V8.47h-.41a1.23,1.23,0,0,0-.33-.64.85.85,0,0,0-.59-.17Z"/><path class="cls-6" d="M61.69,17.05v3.17h7.42a.57.57,0,0,0,.39-.12.82.82,0,0,0,.22-.43H70v3h-.27a.82.82,0,0,0-.22-.42.57.57,0,0,0-.39-.12H58.63v-.27a.91.91,0,0,0,.42-.22.58.58,0,0,0,.12-.4V11.46a.6.6,0,0,0-.12-.4.91.91,0,0,0-.42-.22v-.27H68.91a.57.57,0,0,0,.39-.12.91.91,0,0,0,.22-.42h.27v3h-.27a.91.91,0,0,0-.22-.42.57.57,0,0,0-.39-.12H61.69v2.74h4.68a.57.57,0,0,0,.39-.12.82.82,0,0,0,.22-.42h.27v2.91H67a.92.92,0,0,0-.22-.42.57.57,0,0,0-.39-.12Z"/><path class="cls-6" d="M72.33,21.23V11.46a.6.6,0,0,0-.12-.4.91.91,0,0,0-.42-.22v-.27h6.44a8.43,8.43,0,0,1,3.25.49,4.62,4.62,0,0,1,2.4,2.31,6.76,6.76,0,0,1,.62,3,5.63,5.63,0,0,1-1.84,4.55,4.58,4.58,0,0,1-1.8.95,10.63,10.63,0,0,1-2.63.28H71.79v-.27a.91.91,0,0,0,.42-.22A.58.58,0,0,0,72.33,21.23Zm2.52-1H78a4.79,4.79,0,0,0,2.27-.42c1.09-.59,1.64-1.74,1.64-3.46a4.19,4.19,0,0,0-.88-2.85,2.78,2.78,0,0,0-1.19-.78A5.81,5.81,0,0,0,78,12.48H74.85Z"/><path class="cls-6" d="M86.85,21.23V11.45a.57.57,0,0,0-.12-.39.91.91,0,0,0-.42-.22v-.27h3.6v.27a.82.82,0,0,0-.42.22.57.57,0,0,0-.12.39v9.78a.58.58,0,0,0,.12.4.83.83,0,0,0,.42.22v.27h-3.6v-.27a.91.91,0,0,0,.42-.22A.58.58,0,0,0,86.85,21.23Z"/><path class="cls-6" d="M112.87,19.17h-5.24l-.78,1.63a1.27,1.27,0,0,0-.16.53c0,.25.19.42.56.52v.27h-3.82v-.27a1.1,1.1,0,0,0,.52-.24,2.37,2.37,0,0,0,.41-.66l4.24-8.87a1.65,1.65,0,0,0,.21-.68c0-.26-.17-.44-.49-.56v-.27h4.09v.27c-.33.1-.5.27-.5.5a1.2,1.2,0,0,0,.16.56l4.4,8.9a3.11,3.11,0,0,0,.49.77,1.1,1.1,0,0,0,.57.28v.27h-4.25v-.27c.37-.06.56-.24.56-.53a1.44,1.44,0,0,0-.17-.52Zm-.72-1.58-1.87-4.11-1.91,4.11Z"/><path class="cls-6" d="M128.83,18.15l1.6,2.41-.22.15a.61.61,0,0,0-.38-.22,3,3,0,0,0-.86.41A12.17,12.17,0,0,1,126.52,22a8.6,8.6,0,0,1-2.36.29A7.34,7.34,0,0,1,119.68,21a5.52,5.52,0,0,1-1.63-1.87,5.82,5.82,0,0,1-.68-2.82,5.65,5.65,0,0,1,1.22-3.64,6.67,6.67,0,0,1,5.58-2.33,8.16,8.16,0,0,1,2.35.29A12.11,12.11,0,0,1,129,11.79a2.86,2.86,0,0,0,.86.4.66.66,0,0,0,.38-.22l.22.15-1.6,2.41-.23-.15c0-.09,0-.17,0-.23a.64.64,0,0,0-.22-.46,4,4,0,0,0-.75-.52,6.37,6.37,0,0,0-3.17-.84,4.72,4.72,0,0,0-3.15,1,3.74,3.74,0,0,0-1.39,3,3.73,3.73,0,0,0,1.39,3,4.72,4.72,0,0,0,3.15,1,6.28,6.28,0,0,0,3.17-.85,3.21,3.21,0,0,0,.75-.52.61.61,0,0,0,.22-.46c0-.06,0-.13,0-.22Z"/><path class="cls-6" d="M135,14.21v7a.58.58,0,0,0,.12.4.91.91,0,0,0,.42.22v.27h-3.39v-.27a.91.91,0,0,0,.42-.22.58.58,0,0,0,.12-.4V11.45a.57.57,0,0,0-.12-.39.91.91,0,0,0-.42-.22v-.27h3.92v.27q-.36.11-.36.39a.67.67,0,0,0,.24.45l6.36,6.62V11.45a.57.57,0,0,0-.11-.39.9.9,0,0,0-.43-.22v-.27h3.4v.27a.9.9,0,0,0-.43.22.57.57,0,0,0-.12.39v9.78a.58.58,0,0,0,.12.4.9.9,0,0,0,.43.22v.27h-3.64v-.27c.24-.05.35-.17.35-.37s-.13-.31-.41-.59Z"/><path class="cls-6" d="M155.91,19.17h-5.25l-.77,1.63a1.32,1.32,0,0,0-.17.53c0,.25.19.42.57.52v.27h-3.82v-.27a1.1,1.1,0,0,0,.52-.24,2.18,2.18,0,0,0,.4-.66l4.25-8.87a1.77,1.77,0,0,0,.2-.68c0-.26-.16-.44-.49-.56v-.27h4.1v.27c-.34.1-.5.27-.5.5a1.2,1.2,0,0,0,.16.56l4.4,8.9a2.84,2.84,0,0,0,.49.77,1.1,1.1,0,0,0,.56.28v.27h-4.25v-.27c.38-.06.56-.24.56-.53a1.26,1.26,0,0,0-.17-.52Zm-.72-1.58-1.88-4.11-1.9,4.11Z"/></g></g></svg>