<svg xmlns="http://www.w3.org/2000/svg" xmlns:xlink="http://www.w3.org/1999/xlink" viewBox="0 0 125.87 141.91"><defs><style>.cls-1{fill:url(#Degradado_sin_nombre_16);}.cls-2{fill:url(#Degradado_sin_nombre_9);}.cls-3{fill:#57b952;}.cls-4{font-size:48.08px;font-family:TimesNewRomanPSMT, Times New Roman;letter-spacing:-0.02em;}.cls-4,.cls-6{fill:#ef8437;}.cls-5{fill:#3c4a99;}</style><linearGradient id="Degradado_sin_nombre_16" y1="76.28" x2="97.11" y2="76.28" gradientUnits="userSpaceOnUse"><stop offset="0" stop-color="#364c9c"/><stop offset="1" stop-color="#1b7cb6"/></linearGradient><linearGradient id="Degradado_sin_nombre_9" x1="22.9" y1="39.15" x2="116.96" y2="39.15" gradientUnits="userSpaceOnUse"><stop offset="0" stop-color="#fddc19"/><stop offset="1" stop-color="#f58d32"/></linearGradient></defs><title>Recurso 4</title><g id="Capa_2" data-name="Capa 2"><g id="Capa_1-2" data-name="Capa 1"><path class="cls-1" d="M87.07,73.28,67,93.39a12,12,0,0,1-17,0L23.56,67a12,12,0,0,1,0-17l4.37-4.36-10-10L3.5,50a12,12,0,0,0,0,17L50,113.46a12,12,0,0,0,17,0L97.11,83.31Z"/><path class="cls-2" d="M113.46,50,67,3.5a12,12,0,0,0-17,0L22.9,30.59l10,10L50,23.56a12,12,0,0,1,17,0L93.39,50a12,12,0,0,1,0,17l-1.31,1.31,10,10L113.46,67A12,12,0,0,0,113.46,50Z"/><rect class="cls-3" x="37.93" y="38.28" width="41.43" height="41.43" rx="3.57" ry="3.57" transform="translate(-24.54 58.75) rotate(-45)"/><text class="cls-4" transform="translate(43.6 59.7)">T</text><path class="cls-5" d="M12.22,141.36l-6.38-12V140a1,1,0,0,0,.17.6,1.4,1.4,0,0,0,.64.33v.4H1.56V141a1.4,1.4,0,0,0,.64-.33,1,1,0,0,0,.17-.6V125.36a.91.91,0,0,0-.17-.58,1.4,1.4,0,0,0-.64-.33V124H8.24v.41a.69.69,0,0,0-.6.7,1.24,1.24,0,0,0,.18.58l4.72,9,4.79-8.8a2.11,2.11,0,0,0,.32-.85c0-.34-.21-.54-.64-.58V124h6.55v.41a1.41,1.41,0,0,0-.63.33.86.86,0,0,0-.18.58V140a.9.9,0,0,0,.18.6,1.41,1.41,0,0,0,.63.33v.4h-5.4V141a1.24,1.24,0,0,0,.62-.33A.85.85,0,0,0,19,140V129.4Z"/><path class="cls-5" d="M66.54,126.9V140a.9.9,0,0,0,.18.6,1.35,1.35,0,0,0,.63.33v.4H62V141a1.41,1.41,0,0,0,.63-.33.9.9,0,0,0,.18-.6V126.9H57.38a.92.92,0,0,0-.59.17,1.4,1.4,0,0,0-.33.64h-.4v-4.48h.4a1.5,1.5,0,0,0,.34.64.82.82,0,0,0,.58.18H71.9a.86.86,0,0,0,.6-.18,1.23,1.23,0,0,0,.33-.64h.41v4.48h-.41a1.23,1.23,0,0,0-.33-.64.91.91,0,0,0-.6-.17Z"/><path class="cls-5" d="M27,136.3v3.16h7.43a.57.57,0,0,0,.39-.12.91.91,0,0,0,.22-.42h.27v3H35a.9.9,0,0,0-.22-.43.57.57,0,0,0-.39-.12H23.93v-.27a.78.78,0,0,0,.42-.22.57.57,0,0,0,.12-.39v-9.77a.58.58,0,0,0-.12-.4.86.86,0,0,0-.42-.22v-.27H34.22a.57.57,0,0,0,.39-.12.91.91,0,0,0,.22-.42h.27v3h-.27a.91.91,0,0,0-.22-.42.57.57,0,0,0-.39-.12H27v2.74h4.69a.57.57,0,0,0,.39-.12.91.91,0,0,0,.22-.42h.27v2.92h-.27a.91.91,0,0,0-.22-.42.57.57,0,0,0-.39-.12Z"/><path class="cls-5" d="M37.63,140.48v-9.77a.64.64,0,0,0-.11-.4.9.9,0,0,0-.43-.22v-.27h6.44a8.62,8.62,0,0,1,3.25.48,4.62,4.62,0,0,1,2.41,2.32,6.7,6.7,0,0,1,.62,3A5.67,5.67,0,0,1,48,140.14a4.63,4.63,0,0,1-1.8.94,10.2,10.2,0,0,1-2.64.28H37.09v-.27a.82.82,0,0,0,.43-.22A.62.62,0,0,0,37.63,140.48Zm2.52-1h3.17a5,5,0,0,0,2.28-.41c1.09-.6,1.63-1.75,1.63-3.46a4.14,4.14,0,0,0-.88-2.85,2.71,2.71,0,0,0-1.18-.79,6.19,6.19,0,0,0-1.85-.23H40.15Z"/><path class="cls-5" d="M52.16,140.48V130.7a.57.57,0,0,0-.12-.39.91.91,0,0,0-.42-.22v-.27h3.6v.27a.78.78,0,0,0-.42.21.62.62,0,0,0-.12.4v9.78a.6.6,0,0,0,.12.4.82.82,0,0,0,.42.21v.27h-3.6v-.27a.82.82,0,0,0,.42-.22A.57.57,0,0,0,52.16,140.48Z"/><path class="cls-5" d="M78.18,138.42H72.93L72.15,140a1.54,1.54,0,0,0-.16.54q0,.38.57.51v.27H68.74v-.27a1,1,0,0,0,.52-.23,2.48,2.48,0,0,0,.4-.66l4.25-8.88a1.73,1.73,0,0,0,.2-.67c0-.26-.16-.45-.49-.56v-.27h4.1v.27c-.34.09-.5.26-.5.5a1.23,1.23,0,0,0,.16.56l4.4,8.89a2.93,2.93,0,0,0,.49.78,1,1,0,0,0,.56.27v.27H78.58v-.27c.38-.06.56-.23.56-.52A1.29,1.29,0,0,0,79,140Zm-.73-1.58-1.87-4.11-1.9,4.11Z"/><path class="cls-5" d="M94.13,137.4l1.61,2.4-.22.15a.68.68,0,0,0-.39-.21,2.85,2.85,0,0,0-.85.4,11.64,11.64,0,0,1-2.45,1.13,8.23,8.23,0,0,1-2.37.3,7.37,7.37,0,0,1-4.48-1.3,5.3,5.3,0,0,1-1.62-1.87,5.82,5.82,0,0,1-.69-2.81,5.69,5.69,0,0,1,1.23-3.65,6.69,6.69,0,0,1,5.57-2.33,8.47,8.47,0,0,1,2.35.29A11.52,11.52,0,0,1,94.28,131a3,3,0,0,0,.85.39.65.65,0,0,0,.39-.22l.22.16-1.61,2.41-.23-.16a.94.94,0,0,0,0-.22.63.63,0,0,0-.21-.46,3.21,3.21,0,0,0-.75-.52,6.4,6.4,0,0,0-3.17-.84,4.75,4.75,0,0,0-3.16,1,4,4,0,0,0,0,6.05,4.8,4.8,0,0,0,3.16,1,6.4,6.4,0,0,0,3.17-.84,4,4,0,0,0,.75-.52.67.67,0,0,0,.21-.46.86.86,0,0,0,0-.22Z"/><path class="cls-5" d="M100.32,133.45v7a.57.57,0,0,0,.12.39.82.82,0,0,0,.43.22v.27h-3.4v-.27a.82.82,0,0,0,.43-.22.57.57,0,0,0,.12-.39V130.7a.57.57,0,0,0-.12-.39.82.82,0,0,0-.43-.22v-.27h3.93v.27q-.36.09-.36.39a.69.69,0,0,0,.23.45l6.37,6.62V130.7a.57.57,0,0,0-.12-.39.82.82,0,0,0-.42-.22v-.27h3.39v.27a.82.82,0,0,0-.42.22.57.57,0,0,0-.12.39v9.78a.57.57,0,0,0,.12.39.82.82,0,0,0,.42.22v.27h-3.64v-.27q.36-.08.36-.36c0-.11-.14-.31-.41-.59Z"/><path class="cls-5" d="M121.22,138.42H116l-.78,1.62a1.35,1.35,0,0,0-.16.54q0,.38.57.51v.27h-3.82v-.27a1,1,0,0,0,.51-.23,2.45,2.45,0,0,0,.41-.66l4.25-8.88a1.73,1.73,0,0,0,.2-.67c0-.26-.17-.45-.49-.56v-.27h4.09v.27c-.33.09-.5.26-.5.5a1.37,1.37,0,0,0,.16.56l4.4,8.89a3.22,3.22,0,0,0,.49.78,1,1,0,0,0,.57.27v.27h-4.25v-.27c.37-.06.56-.23.56-.52A1.47,1.47,0,0,0,122,140Zm-.73-1.58-1.87-4.11-1.9,4.11Z"/><path class="cls-6" d="M39,30.39a26.64,26.64,0,0,1-5,16h0Q32.42,50,30.9,53.7a30.21,30.21,0,0,0-.8,4.93c-.49,7.79,6,16.8,6.75,17.79L36,60.05c.54-3.68,1.25-7.58,2.15-11.67,1-4.55,2.15-8.78,3.34-12.67a34.59,34.59,0,0,1,17.34,11,23.89,23.89,0,0,1,15.52-9.8q.86,4.19,2.1,8.78c.92,3.39,1.92,6.56,2.95,9.51A22.87,22.87,0,0,1,81.85,62,24.53,24.53,0,0,1,80,76.79c1.65-1.88,6.89-8.33,6.46-17.25a21.88,21.88,0,0,0-1.59-7.16,34.11,34.11,0,0,1-4.5-8.75A40,40,0,0,1,78.4,29.7v0A65.72,65.72,0,0,1,70,34.55a65.48,65.48,0,0,1-10.55,4,65.57,65.57,0,0,1-10-3A66.13,66.13,0,0,1,39,30.39Z"/></g></g></svg>